<?xml version="1.0" encoding="UTF-8"?>
<svg width="20px" height="20px" viewBox="0 0 20 20" version="1.1" xmlns="http://www.w3.org/2000/svg" xmlns:xlink="http://www.w3.org/1999/xlink">
    <!-- Generator: Sketch 53.1 (72631) - https://sketchapp.com -->
    <title>maintenance</title>
    <desc>Created with Sketch.</desc>
    <g id="Page-1" stroke="none" stroke-width="1" fill="none" fill-rule="evenodd">
        <g id="category" transform="translate(-40.000000, -305.000000)" fill="#8D9498" fill-rule="nonzero">
            <g id="Header">
                <g id="maintenance" transform="translate(40.000000, 305.000000)">
                    <path d="M13.515625,0 L6.484375,0 C5.51507813,0 4.7265625,0.788515625 4.7265625,1.7578125 L4.7265625,5.3515625 C4.7265625,6.32085937 5.51507813,7.109375 6.484375,7.109375 L13.515625,7.109375 C14.4849219,7.109375 15.2734375,6.32085937 15.2734375,5.3515625 L15.2734375,1.7578125 C15.2734375,0.788515625 14.4849219,0 13.515625,0 Z" id="Path"></path>
                    <path d="M18.828125,14.140625 L17.65625,14.140625 L17.65625,13.5546875 C17.65625,12.5853906 16.8677344,11.796875 15.8984375,11.796875 L10.5859375,11.796875 L10.5859375,10.6210938 C10.69625,10.6210938 12.2396875,10.6210938 12.34375,10.6210938 C12.6676172,10.6210938 12.9296875,10.3629297 12.9296875,10.0390625 C12.9296875,9.71519531 12.6676172,9.453125 12.34375,9.453125 L11.7578125,9.453125 L11.7578125,8.28125 L8.2421875,8.28125 L8.2421875,9.453125 L7.65625,9.453125 C7.33238281,9.453125 7.0703125,9.71519531 7.0703125,10.0390625 C7.0703125,10.3629297 7.33238281,10.6210938 7.65625,10.6210938 C7.7665625,10.6210938 9.31,10.6210938 9.4140625,10.6210938 L9.4140625,11.796875 L4.1015625,11.796875 C3.13226563,11.796875 2.34375,12.5853906 2.34375,13.5546875 L2.34375,14.140625 L1.171875,14.140625 C0.524648438,14.140625 0,14.6652734 0,15.3125 L0,16.484375 C0,17.1315234 0.524648438,17.65625 1.171875,17.65625 L2.34375,17.65625 L2.34375,18.828125 L1.7578125,18.828125 C1.43394531,18.828125 1.171875,19.0901953 1.171875,19.4140625 C1.171875,19.7379297 1.43394531,20 1.7578125,20 L4.1015625,20 C4.42542969,20 4.6875,19.7379297 4.6875,19.4140625 C4.6875,19.0901953 4.42542969,18.828125 4.1015625,18.828125 L3.515625,18.828125 L3.515625,17.65625 L4.6875,17.65625 C5.33472656,17.65625 5.859375,17.1315234 5.859375,16.484375 L5.859375,15.3125 C5.859375,14.6652734 5.33472656,14.140625 4.6875,14.140625 L3.515625,14.140625 L3.515625,13.5546875 C3.515625,13.2314062 3.77828125,12.96875 4.1015625,12.96875 L9.4140625,12.96875 L9.4140625,14.140625 L8.2421875,14.140625 C7.59496094,14.140625 7.0703125,14.6652734 7.0703125,15.3125 L7.0703125,16.484375 C7.0703125,17.1315234 7.59496094,17.65625 8.2421875,17.65625 L9.4140625,17.65625 L9.4140625,18.828125 L8.828125,18.828125 C8.50425781,18.828125 8.2421875,19.0901953 8.2421875,19.4140625 C8.2421875,19.7379297 8.50425781,20 8.828125,20 L11.171875,20 C11.4957422,20 11.7578125,19.7379297 11.7578125,19.4140625 C11.7578125,19.0901953 11.4957422,18.828125 11.171875,18.828125 L10.5859375,18.828125 L10.5859375,17.65625 L11.7578125,17.65625 C12.4050391,17.65625 12.9296875,17.1315234 12.9296875,16.484375 L12.9296875,15.3125 C12.9296875,14.6652734 12.4050391,14.140625 11.7578125,14.140625 L10.5859375,14.140625 L10.5859375,12.96875 L15.8984375,12.96875 C16.2217188,12.96875 16.484375,13.2314062 16.484375,13.5546875 L16.484375,14.140625 L15.3125,14.140625 C14.6652734,14.140625 14.140625,14.6652734 14.140625,15.3125 L14.140625,16.484375 C14.140625,17.1315234 14.6652734,17.65625 15.3125,17.65625 L16.484375,17.65625 L16.484375,18.828125 L15.8984375,18.828125 C15.5745703,18.828125 15.3125,19.0901953 15.3125,19.4140625 C15.3125,19.7379297 15.5745703,20 15.8984375,20 L18.2421875,20 C18.5660547,20 18.828125,19.7379297 18.828125,19.4140625 C18.828125,19.0901953 18.5660547,18.828125 18.2421875,18.828125 L17.65625,18.828125 L17.65625,17.65625 L18.828125,17.65625 C19.4753516,17.65625 20,17.1315234 20,16.484375 L20,15.3125 C20,14.6652734 19.4753516,14.140625 18.828125,14.140625 Z" id="Path"></path>
                </g>
            </g>
        </g>
    </g>
</svg>