<?xml version="1.0" encoding="UTF-8"?>
<svg width="18px" height="15px" viewBox="0 0 18 15" version="1.1" xmlns="http://www.w3.org/2000/svg" xmlns:xlink="http://www.w3.org/1999/xlink">
    <!-- Generator: Sketch 53.1 (72631) - https://sketchapp.com -->
    <title>multiple-users-silhouette</title>
    <desc>Created with Sketch.</desc>
    <g id="Page-1" stroke="none" stroke-width="1" fill="none" fill-rule="evenodd">
        <g id="category" transform="translate(-42.000000, -509.000000)" fill="#8D9498" fill-rule="nonzero">
            <g id="Header">
                <g id="multiple-users-silhouette" transform="translate(42.000000, 509.000000)">
                    <path d="M10.6665441,2.62985294 C11.4838235,3.14227941 12.0569118,4.00941176 12.16125,5.01595588 C12.4945588,5.17169118 12.8644853,5.26125 13.2566912,5.26125 C14.6885294,5.26125 15.8490441,4.10073529 15.8490441,2.66911765 C15.8490441,1.23727941 14.6885294,0.0767647059 13.2566912,0.0767647059 C11.8385294,0.0772058824 10.6881618,1.21698529 10.6665441,2.62985294 Z M8.96823529,7.93764706 C10.4000735,7.93764706 11.5605882,6.77691176 11.5605882,5.34529412 C11.5605882,3.91367647 10.3998529,2.75316176 8.96823529,2.75316176 C7.53661765,2.75316176 6.37544118,3.91389706 6.37544118,5.34551471 C6.37544118,6.77713235 7.53661765,7.93764706 8.96823529,7.93764706 Z M10.0678676,8.11433824 L7.86816176,8.11433824 C6.03794118,8.11433824 4.54897059,9.60352941 4.54897059,11.43375 L4.54897059,14.1238235 L4.55580882,14.1659559 L4.74110294,14.2239706 C6.48772059,14.7697059 8.00514706,14.9516912 9.25411765,14.9516912 C11.6936029,14.9516912 13.1075735,14.2561765 13.1947059,14.2118382 L13.3678676,14.1242647 L13.3863971,14.1242647 L13.3863971,11.43375 C13.3870588,9.60352941 11.8980882,8.11433824 10.0678676,8.11433824 Z M14.3567647,5.43816176 L12.1740441,5.43816176 C12.1504412,6.31147059 11.7776471,7.09786765 11.1880147,7.66345588 C12.8148529,8.14720588 14.0051471,9.65580882 14.0051471,11.4377206 L14.0051471,12.2666912 C16.1602941,12.1877206 17.4022059,11.5769118 17.4840441,11.5358824 L17.6572059,11.4480882 L17.6757353,11.4480882 L17.6757353,8.75713235 C17.6757353,6.92713235 16.1867647,5.43816176 14.3567647,5.43816176 Z M4.41948529,5.26169118 C4.92661765,5.26169118 5.39845588,5.11367647 5.79816176,4.86154412 C5.92522059,4.03279412 6.36948529,3.30860294 7.00411765,2.81536765 C7.00676471,2.76683824 7.01139706,2.71875 7.01139706,2.66977941 C7.01139706,1.23794118 5.85066176,0.0774264706 4.41948529,0.0774264706 C2.98742647,0.0774264706 1.82713235,1.23794118 1.82713235,2.66977941 C1.82713235,4.10095588 2.98742647,5.26169118 4.41948529,5.26169118 Z M6.74757353,7.66345588 C6.16080882,7.10073529 5.78933824,6.31852941 5.76220588,5.45051471 C5.68125,5.44455882 5.60117647,5.43816176 5.51867647,5.43816176 L3.31919118,5.43816176 C1.48897059,5.43816176 0,6.92713235 0,8.75713235 L0,11.4476471 L0.00683823529,11.4891176 L0.192132353,11.5475735 C1.59330882,11.985 2.84382353,12.1866176 3.93,12.2501471 L3.93,11.4377206 C3.93044118,9.65580882 5.12029412,8.14764706 6.74757353,7.66345588 Z" id="Shape"></path>
                </g>
            </g>
        </g>
    </g>
</svg>