<?xml version="1.0" encoding="UTF-8"?>
<svg width="12px" height="14px" viewBox="0 0 12 14" version="1.1" xmlns="http://www.w3.org/2000/svg" xmlns:xlink="http://www.w3.org/1999/xlink">
    <!-- Generator: Sketch 53.1 (72631) - https://sketchapp.com -->
    <title>delete (1)</title>
    <desc>Created with Sketch.</desc>
    <g id="Page-1" stroke="none" stroke-width="1" fill="none" fill-rule="evenodd">
        <g id="category" transform="translate(-1304.000000, -310.000000)" fill="#DC3545" fill-rule="nonzero">
            <g id="Header">
                <g id="Group-13-Copy" transform="translate(245.000000, 234.000000)">
                    <g id="Group-12">
                        <g id="delete-(1)" transform="translate(1059.000000, 76.000000)">
                            <path d="M7.61673224,5.08122086 C7.43648019,5.08122086 7.29039192,5.22730917 7.29039192,5.40756119 L7.29039192,11.5753934 C7.29039192,11.7555179 7.43648019,11.9017337 7.61673224,11.9017337 C7.79698427,11.9017337 7.94307257,11.7555179 7.94307257,11.5753934 L7.94307257,5.40756119 C7.94307257,5.22730917 7.79698427,5.08122086 7.61673224,5.08122086 Z" id="Path"></path>
                            <path d="M3.76591639,5.08122086 C3.58566434,5.08122086 3.43957607,5.22730917 3.43957607,5.40756119 L3.43957607,11.5753934 C3.43957607,11.7555179 3.58566434,11.9017337 3.76591639,11.9017337 C3.94616841,11.9017337 4.09225672,11.7555179 4.09225672,11.5753934 L4.09225672,5.40756119 C4.09225672,5.22730917 3.94616841,5.08122086 3.76591639,5.08122086 Z" id="Path"></path>
                            <path d="M0.959389585,4.18110796 L0.959389585,12.2214452 C0.959389585,12.6966783 1.1336502,13.1429742 1.43806453,13.4631957 C1.74107662,13.7843094 2.16276954,13.9666011 2.60409382,13.967366 L8.77855478,13.967366 C9.22000656,13.9666011 9.64169945,13.7843094 9.94458407,13.4631957 C10.2489984,13.1429742 10.423259,12.6966783 10.423259,12.2214452 L10.423259,4.18110796 C11.0283909,4.02048733 11.4205092,3.43587922 11.3395615,2.81494025 C11.2584863,2.19412879 10.7295855,1.7297312 10.10342,1.72960373 L8.43258306,1.72960373 L8.43258306,1.32167832 C8.43449518,0.978638541 8.29885999,0.649238774 8.0560169,0.406905594 C7.81317381,0.164699883 7.48326414,0.0298295455 7.14022436,0.0326340326 L4.24242424,0.0326340326 C3.89938446,0.0298295455 3.56947479,0.164699883 3.3266317,0.406905594 C3.08378862,0.649238774 2.94815342,0.978638541 2.95006558,1.32167832 L2.95006558,1.72960373 L1.27922859,1.72960373 C0.653063091,1.7297312 0.124162312,2.19412879 0.0430871049,2.81494025 C-0.0378605688,3.43587922 0.35425773,4.02048733 0.959389585,4.18110796 Z M8.77855478,13.3146853 L2.60409382,13.3146853 C2.04612836,13.3146853 1.61207024,12.835373 1.61207024,12.2214452 L1.61207024,4.20979021 L9.7705784,4.20979021 L9.7705784,12.2214452 C9.7705784,12.835373 9.33652024,13.3146853 8.77855478,13.3146853 Z M3.60274623,1.32167832 C3.6005791,1.1517519 3.66737689,0.988199301 3.78796985,0.868243744 C3.90843531,0.748288186 4.07237032,0.682382713 4.24242424,0.685314685 L7.14022436,0.685314685 C7.31027825,0.682382713 7.47421329,0.748288186 7.59467875,0.868243744 C7.71527172,0.988071832 7.7820695,1.1517519 7.77990241,1.32167832 L7.77990241,1.72960373 L3.60274623,1.72960373 L3.60274623,1.32167832 Z M1.27922859,2.38228438 L10.10342,2.38228438 C10.4278482,2.38228438 10.6908326,2.6452688 10.6908326,2.96969697 C10.6908326,3.29412514 10.4278482,3.55710956 10.10342,3.55710956 L1.27922859,3.55710956 C0.954800392,3.55710956 0.691816005,3.29412514 0.691816005,2.96969697 C0.691816005,2.6452688 0.954800392,2.38228438 1.27922859,2.38228438 Z" id="Shape"></path>
                            <path d="M5.69132432,5.08122086 C5.51107226,5.08122086 5.36498399,5.22730917 5.36498399,5.40756119 L5.36498399,11.5753934 C5.36498399,11.7555179 5.51107226,11.9017337 5.69132432,11.9017337 C5.87157634,11.9017337 6.01766464,11.7555179 6.01766464,11.5753934 L6.01766464,5.40756119 C6.01766464,5.22730917 5.87157634,5.08122086 5.69132432,5.08122086 Z" id="Path"></path>
                        </g>
                    </g>
                </g>
            </g>
        </g>
    </g>
</svg>