<?xml version="1.0" encoding="UTF-8"?>
<svg width="13px" height="13px" viewBox="0 0 13 13" version="1.1" xmlns="http://www.w3.org/2000/svg" xmlns:xlink="http://www.w3.org/1999/xlink">
    <!-- Generator: Sketch 53.1 (72631) - https://sketchapp.com -->
    <title>edit (3) copy 5</title>
    <desc>Created with Sketch.</desc>
    <g id="Page-1" stroke="none" stroke-width="1" fill="none" fill-rule="evenodd">
        <g id="category" transform="translate(-1271.000000, -371.000000)" fill="#666666" fill-rule="nonzero">
            <g id="Header">
                <g id="Group-13-Copy" transform="translate(245.000000, 234.000000)">
                    <g id="Group-12">
                        <g id="edit-(3)-copy-5" transform="translate(1026.000000, 137.000000)">
                            <path d="M12.1406447,0.840934043 C11.0231979,-0.279278723 9.20596383,-0.279278723 8.08851702,0.840934043 L0.659155319,8.26752979 C0.601070213,8.32561489 0.565112766,8.40029574 0.554048936,8.48050851 L0.00362340426,12.5575298 C-0.0129723404,12.6737 0.0285170213,12.7898702 0.108729787,12.870083 C0.177878723,12.9392319 0.274687234,12.9807213 0.371495745,12.9807213 C0.388091489,12.9807213 0.404687234,12.9807213 0.421282979,12.9779553 L2.87745319,12.6460404 C3.08213404,12.6183809 3.22596383,12.4302957 3.19830426,12.2256149 C3.17064468,12.020934 2.98255957,11.8771043 2.77787872,11.9047638 L0.808517021,12.1702957 L1.19298511,9.32689149 L4.18575106,12.3196574 C4.2549,12.3888064 4.35170851,12.4302957 4.44851702,12.4302957 C4.54532553,12.4302957 4.64213404,12.3915723 4.71128298,12.3196574 L12.1406447,4.8930617 C12.6827723,4.35093404 12.9814957,3.63178511 12.9814957,2.86561489 C12.9814957,2.09944468 12.6827723,1.38029574 12.1406447,0.840934043 Z M8.23234681,1.7537 L9.47979362,3.00114681 L2.70043191,9.78050851 L1.45298511,8.5330617 L8.23234681,1.7537 Z M4.45128298,11.5285936 L3.23149574,10.3088064 L10.0108574,3.52944468 L11.2306447,4.74923191 L4.45128298,11.5285936 Z M11.7506447,4.21540213 L8.7661766,1.23093404 C9.14511277,0.918380851 9.61809149,0.746891489 10.1159638,0.746891489 C10.6829851,0.746891489 11.2140489,0.968168085 11.6151128,1.36646596 C12.0161766,1.76476383 12.2346872,2.29859362 12.2346872,2.86561489 C12.2346872,3.36625319 12.0631979,3.83646596 11.7506447,4.21540213 Z" id="Shape"></path>
                        </g>
                    </g>
                </g>
            </g>
        </g>
    </g>
</svg>