<?xml version="1.0" encoding="UTF-8"?>
<svg width="12px" height="16px" viewBox="0 0 12 16" version="1.1" xmlns="http://www.w3.org/2000/svg" xmlns:xlink="http://www.w3.org/1999/xlink">
    <!-- Generator: Sketch 53.1 (72631) - https://sketchapp.com -->
    <title>placeholder-filled-point</title>
    <desc>Created with Sketch.</desc>
    <g id="Page-1" stroke="none" stroke-width="1" fill="none" fill-rule="evenodd">
        <g id="category" transform="translate(-44.000000, -409.000000)" fill="#FFFFFF" fill-rule="nonzero">
            <g id="Header">
                <g id="placeholder-filled-point" transform="translate(44.000000, 409.000000)">
                    <path d="M6.01714286,0 C2.77893878,0 0.144163265,2.63477551 0.144163265,5.87330612 C0.144163265,6.71804082 0.317061224,7.52457143 0.657795918,8.27069388 C2.12620408,11.4839184 4.94155102,14.8764082 5.76963265,15.8395102 C5.83167347,15.9115102 5.92212245,15.9529796 6.01730612,15.9529796 C6.1124898,15.9529796 6.20293878,15.9115102 6.26497959,15.8395102 C7.09273469,14.8765714 9.90808163,11.4842449 11.3769796,8.27069388 C11.7178776,7.52457143 11.8906122,6.71804082 11.8906122,5.87330612 C11.8902857,2.63477551 9.2555102,0 6.01714286,0 Z M6.01714286,8.92391837 C4.33502041,8.92391837 2.96636735,7.55526531 2.96636735,5.87314286 C2.96636735,4.19085714 4.33502041,2.82220408 6.01714286,2.82220408 C7.69926531,2.82220408 9.06791837,4.19085714 9.06791837,5.87314286 C9.06808163,7.55526531 7.69942857,8.92391837 6.01714286,8.92391837 Z" id="Shape"></path>
                </g>
            </g>
        </g>
    </g>
</svg>