<?xml version="1.0" encoding="UTF-8"?>
<svg width="15px" height="17px" viewBox="0 0 15 17" version="1.1" xmlns="http://www.w3.org/2000/svg" xmlns:xlink="http://www.w3.org/1999/xlink">
    <!-- Generator: Sketch 53.1 (72631) - https://sketchapp.com -->
    <title>planning</title>
    <desc>Created with Sketch.</desc>
    <g id="Page-1" stroke="none" stroke-width="1" fill="none" fill-rule="evenodd">
        <g id="category" transform="translate(-43.000000, -457.000000)" fill="#8D9498" fill-rule="nonzero">
            <g id="Header">
                <g id="planning" transform="translate(43.000000, 457.000000)">
                    <path d="M13.5770597,3.37464489 L0.588600852,3.37464489 C0.264410529,3.37464489 0,3.63905542 0,3.96324574 L0,16.559304 L14.1656605,16.559304 L14.1656605,3.96324574 C14.1656605,3.63905542 13.90125,3.37464489 13.5770597,3.37464489 Z M4.79142554,13.3242736 L3.63384387,14.4818552 C3.52348121,14.5923712 3.37387849,14.6542969 3.21768466,14.6542969 C3.06149083,14.6542969 2.91188811,14.5923712 2.80152545,14.4818552 L2.33064477,14.0109745 C2.10072256,13.7812056 2.10072256,13.4084251 2.33064477,13.1786561 C2.56041371,12.9487339 2.93304098,12.9487339 3.16296318,13.1786561 L3.21768466,13.2332243 L3.95910713,12.4918019 C4.18887607,12.2620329 4.56150333,12.2620329 4.79142554,12.4918019 C5.02134775,12.7217241 5.02134775,13.0943513 4.79142554,13.3242736 Z M4.79142554,6.81228847 L3.63384387,7.96987014 C3.51888274,8.08483123 3.36836036,8.14231179 3.21768466,8.14231179 C3.06700896,8.14231179 2.91633327,8.08483123 2.80152545,7.96987014 L2.33064477,7.49898946 C2.10072256,7.26922053 2.10072256,6.89643999 2.33064477,6.66667105 C2.56041371,6.43674884 2.93304098,6.43674884 3.16296318,6.66667105 L3.21768466,6.72123925 L3.95910713,5.97997006 C4.18887607,5.75004785 4.56150333,5.75004785 4.79142554,5.97997006 C5.02134775,6.20973899 5.02134775,6.58251953 4.79142554,6.81228847 Z M11.2226562,14.1049361 L6.71970646,14.1049361 C6.39474974,14.1049361 6.13110561,13.8414452 6.13110561,13.5163352 C6.13110561,13.1912252 6.39474974,12.9277344 6.71970646,12.9277344 L11.2226562,12.9277344 C11.5477662,12.9277344 11.8112571,13.1912252 11.8112571,13.5163352 C11.8112571,13.8414452 11.5477662,14.1049361 11.2226562,14.1049361 Z M11.2226562,7.59295099 L6.71970646,7.59295099 C6.39474974,7.59295099 6.13110561,7.32930686 6.13110561,7.00435014 C6.13110561,6.67924015 6.39474974,6.41574929 6.71970646,6.41574929 L11.2226562,6.41574929 C11.5477662,6.41574929 11.8112571,6.67924015 11.8112571,7.00435014 C11.8112571,7.32946013 11.5477662,7.59295099 11.2226562,7.59295099 Z" id="Shape"></path>
                    <path d="M5.10120739,0.588600852 C5.10120739,0.26349086 4.83771653,0 4.51260653,0 L1.76580256,0 C1.44069256,0 1.1772017,0.26349086 1.1772017,0.588600852 L1.1772017,2.19744318 L5.10120739,2.19744318 L5.10120739,0.588600852 Z" id="Path"></path>
                    <path d="M12.9884588,0.588600852 C12.9884588,0.26349086 12.7249679,0 12.399858,0 L9.65305398,0 C9.32794399,0 9.06445312,0.26349086 9.06445312,0.588600852 L9.06445312,2.19744318 L12.9884588,2.19744318 L12.9884588,0.588600852 Z" id="Path"></path>
                </g>
            </g>
        </g>
    </g>
</svg>