<?xml version="1.0" encoding="UTF-8"?>
<svg width="14px" height="14px" viewBox="0 0 14 14" version="1.1" xmlns="http://www.w3.org/2000/svg" xmlns:xlink="http://www.w3.org/1999/xlink">
    <!-- Generator: Sketch 53.1 (72631) - https://sketchapp.com -->
    <title>box</title>
    <desc>Created with Sketch.</desc>
    <g id="Page-1" stroke="none" stroke-width="1" fill="none" fill-rule="evenodd">
        <g id="category" transform="translate(-44.000000, -359.000000)" fill="#FFFFFF" fill-rule="nonzero">
            <g id="Header">
                <g id="box" transform="translate(44.000000, 359.000000)">
                    <path d="M0.411764706,14 L13.5882353,14 C13.8156467,14 14,13.8156467 14,13.5882353 L14,0.411764706 C14,0.184353338 13.8156467,0 13.5882353,0 L9.47058824,0 L9.47058824,7 C9.47056002,7.14837661 9.39070581,7.2852635 9.26156006,7.35831823 C9.1324143,7.43137296 8.97395168,7.42929631 8.84676471,7.35288235 L7,6.24482353 L5.15323529,7.35288235 C5.02604832,7.42929631 4.8675857,7.43137296 4.73843994,7.35831823 C4.60929419,7.2852635 4.52943998,7.14837661 4.52941176,7 L4.52941176,0 L0.411764706,0 C0.184353338,0 0,0.184353338 0,0.411764706 L0,13.5882353 C0,13.8156467 0.184353338,14 0.411764706,14 Z" id="Path"></path>
                    <path d="M6.78794118,5.41182353 C6.91844279,5.33341814 7.08155721,5.33341814 7.21205882,5.41182353 L8.64705882,6.27282353 L8.64705882,0 L5.35294118,0 L5.35294118,6.27282353 L6.78794118,5.41182353 Z" id="Path"></path>
                </g>
            </g>
        </g>
    </g>
</svg>