<?xml version="1.0" encoding="UTF-8"?>
<svg width="16px" height="15px" viewBox="0 0 16 15" version="1.1" xmlns="http://www.w3.org/2000/svg" xmlns:xlink="http://www.w3.org/1999/xlink">
    <!-- Generator: Sketch 53.1 (72631) - https://sketchapp.com -->
    <title>cogwheel</title>
    <desc>Created with Sketch.</desc>
    <g id="Page-1" stroke="none" stroke-width="1" fill="none" fill-rule="evenodd">
        <g id="category" transform="translate(-44.000000, -559.000000)" fill="#8D9498" fill-rule="nonzero">
            <g id="Header">
                <g id="cogwheel" transform="translate(44.000000, 559.000000)">
                    <path d="M14.1914749,5.87127686 L13.01651,5.72193146 C12.919693,5.42369842 12.8002167,5.13622283 12.6609421,4.86316682 L13.3864975,3.9287567 C13.6802673,3.55064391 13.6459351,3.01689146 13.3102799,2.69187926 L12.3258591,1.7074585 C11.997757,1.36871338 11.4640045,1.3349533 11.0853195,1.62815095 L10.1521683,2.35370637 C9.8789978,2.21443178 9.59152222,2.09495543 9.29271697,1.99813843 L9.14337158,0.82500457 C9.08718108,0.354423516 8.68778229,0 8.21468353,0 L6.81461335,0 C6.34151458,0 5.94211579,0.354423516 5.88592529,0.823173516 L5.7365799,1.99813843 C5.43777466,2.09495543 5.15029907,2.21374512 4.87712859,2.35370637 L3.94340514,1.62815095 C3.56586457,1.3349533 3.03211213,1.36871338 2.7065277,1.70436858 L1.72210693,2.68810271 C1.38336182,3.01689146 1.34902954,3.55064391 1.64279938,3.92932893 L2.3683548,4.86316682 C2.22839355,5.13622283 2.10960387,5.42369842 2.01278687,5.72193146 L0.839653008,5.87127686 C0.369071953,5.92746735 0.0146484375,6.32686614 0.0146484375,6.79996491 L0.0146484375,8.20003509 C0.0146484375,8.67313386 0.369071953,9.07253265 0.837821953,9.12872314 L2.01278687,9.27806854 C2.10960387,9.57630158 2.22908021,9.86377717 2.3683548,10.1368332 L1.64279938,11.0712433 C1.34902954,11.4493561 1.38336182,11.9831085 1.71901702,12.3081207 L2.70343781,13.2925415 C3.03211213,13.6306 3.56529234,13.66436 3.94397736,13.3712769 L4.87781525,12.645607 C5.15087127,12.7855682 5.43834686,12.9050446 5.7365799,13.0012894 L5.88592529,14.1737366 C5.94211579,14.6455765 6.34151458,15 6.81461335,15 L8.21468353,15 C8.68778229,15 9.08718108,14.6455765 9.14337158,14.1768265 L9.29271697,13.0018616 C9.59095002,12.9050446 9.87842561,12.7855682 10.1514816,12.6462936 L11.0858917,13.3718491 C11.4640045,13.6656189 11.997757,13.6312866 12.3227692,13.2956314 L13.3071899,12.3112106 C13.6459351,11.9825363 13.6802673,11.4493561 13.3864975,11.0706711 L12.6609421,10.1368332 C12.8009033,9.86377717 12.9202652,9.57630158 13.01651,9.27806854 L14.1890716,9.12872314 C14.6596527,9.07253265 15.0140762,8.67313386 15.0140762,8.20003509 L15.0140762,6.79996491 C15.0146484,6.32686614 14.6602249,5.92746735 14.1914749,5.87127686 Z M7.51464844,10.6250382 C5.79151154,10.6250382 4.38961028,9.22313689 4.38961028,7.5 C4.38961028,5.77686311 5.79151154,4.37496185 7.51464844,4.37496185 C9.23778533,4.37496185 10.6396866,5.77686311 10.6396866,7.5 C10.6396866,9.22313689 9.23778533,10.6250382 7.51464844,10.6250382 Z" id="Shape"></path>
                </g>
            </g>
        </g>
    </g>
</svg>